<svg fill="none" xmlns="http://www.w3.org/2000/svg" viewBox="0 0 509 518"><path fill-rule="evenodd" clip-rule="evenodd" d="M243.2 55.6a171.4 171.4 0 01223.6 255.7l.5 1 .6 1.3h24.5c9 0 16.4 7.3 16.4 16.4v49c0 9-7.3 16.4-16.4 16.4H468c-3.5 8.4-8 16.4-13.6 23.6l12.2 21.3a16.3 16.3 0 01-6 22.3L418 487.2a16.4 16.4 0 01-22.3-6.1l-12.2-21.2c-9 1.2-18.3 1.2-27.4 0L344 481.1a16.3 16.3 0 01-22.2 6L279 462.7a16.3 16.3 0 01-6-22.4l12.3-21.2a103.5 103.5 0 01-13.7-23.6h-24.5c-9 0-16.4-7.4-16.4-16.4v-7.3a24.2 24.2 0 01-19.6-.7L186 396.3a24.5 24.5 0 01-4.7 27.8l-86.7 86.7a24.6 24.6 0 01-34.7 0l-34.7-34.7a24.5 24.5 0 010-34.7l86.7-86.7c7.4-7 18.4-8.9 27.8-4.6l25.3-25.3a24.2 24.2 0 014.7-27.8l10-10-8.8-15.1a108 108 0 01-27.4 0L131.3 293a16.4 16.4 0 01-22.2 6l-42.6-24.5a16.3 16.3 0 01-6-22.4L72.9 231A103.6 103.6 0 0159 207.3H34.6c-9 0-16.3-7.3-16.4-16.3v-49c0-9.1 7.4-16.4 16.4-16.4h24.5c3.5-8.5 8.1-16.4 13.7-23.7L60.5 80.7a16.3 16.3 0 016-22.4L109 33.8a16.4 16.4 0 0122.3 6L143.5 61c9.1-1.1 18.3-1.1 27.4 0l12.3-21.2a16.4 16.4 0 0122.2-6l37.8 21.8zm134.6 347.3a49 49 0 0041-48.4l-.1-3-.2-1.2a170.6 170.6 0 01-95 19.9 49 49 0 0054.3 32.7zM166.2 214.6a170.4 170.4 0 0116.4-90 49 49 0 10-16.4 90zM324 320.4c19-29 56.6-39.5 88-24.5-25.1 19.2-56.6 28-88 24.5zm131.7-151.2l.6.3a121.7 121.7 0 00-32.2-57.6l-4.2-3.8-1.4-1.2-50.6 51.4a20.9 20.9 0 01-29.5.1l-29-28.7a164.7 164.7 0 01-45.4 12.6l-10.2 39.5a20.7 20.7 0 01-25.3 14.9l-13.4-4a122.2 122.2 0 0034.1 91.1c2.9-4.4 5.9-8.7 9.1-12.9L238 235.5a20.7 20.7 0 017.5-28.4l65.7-38a20.8 20.8 0 0128.4 7.8l20.3 35.3c15.6-2.3 31.5-2.3 47 0l20.5-35.4a20.8 20.8 0 0128.3-7.7z" fill="#4AD268" fill-opacity=".5"/><path d="M319.1 0c-33.4 0-66 9.8-93.9 28.1L187.4 6.3a16.4 16.4 0 00-22.2 6l-12.3 21.3c-9-1.2-18.3-1.2-27.4 0l-12.2-21.2A16.4 16.4 0 0091 6.3L48.5 31a16.3 16.3 0 00-6 22.3l12.3 21.2a103.5 103.5 0 00-13.7 23.7H16.6c-9 0-16.3 7.3-16.3 16.4v49c0 9 7.3 16.4 16.3 16.4h24.5c3.5 8.4 8.1 16.4 13.7 23.6l-12.2 21.2a16.3 16.3 0 005.9 22.4L91 271.7a16.4 16.4 0 0022.2-6l12.2-21.3a108 108 0 0027.4 0l8.8 15.1-10 10a24.2 24.2 0 00-4.7 27.8l-25.3 25.3a25.1 25.1 0 00-27.8 4.7L7.2 414a24.5 24.5 0 000 34.7l34.7 34.7a24.6 24.6 0 0034.7 0l86.7-86.8a24.5 24.5 0 004.7-27.8l25.2-25.2c6.2 3 13.3 3.2 19.6.7v7.3c0 9 7.4 16.3 16.4 16.3h24.5c3.5 8.5 8 16.4 13.7 23.7L255 412.8a16.3 16.3 0 006 22.4l42.6 24.5a16.3 16.3 0 0022.2-6l12.2-21.3c9.1 1.2 18.3 1.2 27.4 0l12.2 21.2a16.4 16.4 0 0022.3 6.1l42.6-24.5a16.3 16.3 0 005.9-22.4l-12.2-21.2c5.5-7.3 10.1-15.2 13.6-23.7h24.5c9 0 16.4-7.3 16.4-16.3v-49c0-9.1-7.3-16.4-16.4-16.4H450l-1-2.4A171.4 171.4 0 00319 0zm155.3 171.7c0 53.4-27.5 103-72.8 131.4l-.6.3a151 151 0 01-103 22 8.2 8.2 0 00-3.9-.7h-.3a155.3 155.3 0 11180.6-153zM401 327a49 49 0 01-95.5 15.7 170.6 170.6 0 0095.1-19.9c.2 1.4.4 2.8.4 4.2zM147.4 171.7c0 5.2.3 10.3.8 15.5a49 49 0 1116.4-90 170.4 170.4 0 00-17.2 74.5zm-24.7 55.7c-3.4-.6-6.8 1-8.5 4l-15 26L56.7 233l15-26c1.8-3 1.4-6.8-.8-9.5A88 88 0 0154.5 169a8.2 8.2 0 00-7.7-5.5H16.6v-49h30.2c3.5 0 6.6-2.2 7.7-5.5a88 88 0 0116.4-28.5 8.2 8.2 0 00.9-9.4l-15.1-26L99 20.4l15 26.1c1.8 3 5.2 4.6 8.6 4 11-2 22.1-2 33 0 3.5.6 6.9-1 8.6-4l15-26.1 31.5 18.1a172.9 172.9 0 00-38.3 44.2 65.4 65.4 0 10-22 120.6c1.5 8.1 3.7 16.2 6.4 24h-1.1c-11 2-22.2 2-33 0zm57.9 105.7l-23.1 23-11.6-11.5-11.5-11.5 23-23.2.6.5 22.6 22.7zM65 471.8a8.2 8.2 0 01-11.6 0l-34.7-34.7a8.2 8.2 0 010-11.5L30.3 414l46.3 46.2L65 471.8zm86.7-86.7l-63.6 63.6L42 402.4l63.6-63.6c3.2-3 8.3-3 11.5 0l34.7 34.7a8.2 8.2 0 010 11.6zm46.3-57.7v-.1l-28.4-28.4-6.3-6.3a8.1 8.1 0 010-11.5l13.4-13.5a173 173 0 0046.2 46.2l-13.4 13.5a8.1 8.1 0 01-11.5 0zm276.4-24.9v49h-30.1a8.2 8.2 0 00-7.7 5.6 87.9 87.9 0 01-16.4 28.4 8.2 8.2 0 00-.9 9.4l15 26.1-42.4 24.5-15-26a8.2 8.2 0 00-8.6-4 92 92 0 01-33 0c-3.4-.7-6.8 1-8.6 4l-15 26-42.4-24.5 15-26.1c1.8-3 1.4-6.8-.8-9.4A87.8 87.8 0 01267 357a8.2 8.2 0 00-7.8-5.5h-30.1v-20.9l8-8.1a170.4 170.4 0 0050.6 17.8 65.3 65.3 0 10127.8-26.8c7.4-5.1 14.3-10.7 20.8-16.9l.2.4a8.2 8.2 0 007.7 5.4h30.1z" fill="#434343"/><path d="M181.8 152.4v.6A138.7 138.7 0 00221 269.5c1.7 1.7 3.6 3.2 5.4 4.9l.2.1A138.9 138.9 0 10404.3 61.3a138.6 138.6 0 00-222.4 91v.1zM306 293c19-29 56.6-39.6 88-24.6-25.1 19.2-56.6 28-88 24.6zm101-36.2a85.8 85.8 0 00-118.2 33 121.6 121.6 0 01-45.2-22.3c3.8-6.3 8.1-12.3 12.9-17.9a8.1 8.1 0 00.9-9.4L234 200a4.4 4.4 0 011.6-6l65.6-38c1-.6 2.3-.7 3.4-.4 1.1.3 2.1 1 2.7 2l23.2 40.3c1.7 3 5.1 4.6 8.5 4 17.4-3.2 35.3-3.2 52.7 0 3.4.6 6.8-1 8.6-4l23.2-40.3c.6-1 1.5-1.7 2.6-2 1.1-.3 2.4-.2 3.4.4l12 6.9c2.4 34.8-10.1 69-34.5 94zm31.3-114.7l-.6-.4a20.8 20.8 0 00-28.3 7.7L389 184.8a161.3 161.3 0 00-47 0l-20.4-35.4a20.8 20.8 0 00-28.4-7.7l-65.7 38A20.7 20.7 0 00220 208l20.4 35.4c-3.3 4-6.3 8.4-9.2 12.8a122.2 122.2 0 01-34.1-91l13.5 4a20.7 20.7 0 0025.2-15l10.2-39.5a163.1 163.1 0 0045.4-12.5l29 28.7c8.2 8 21.4 8 29.5-.2l50.6-51.3a121.7 121.7 0 0137.8 62.6zM232.7 84.5a122.8 122.8 0 01154.9-15.2l-49.3 50a4.4 4.4 0 01-6.3 0l-33.1-32.6a8.2 8.2 0 00-9.3-1.6 149 149 0 01-50.8 14 8.2 8.2 0 00-7.2 6.1l-11.7 45c-.2 1.2-1 2.1-2 2.7-.9.6-2 .8-3 .6l-16-4.7a121.9 121.9 0 0133.8-64.3z" fill="#434343"/></svg>