<svg fill="none" xmlns="http://www.w3.org/2000/svg" viewBox="0 0 491 518"><path fill-rule="evenodd" clip-rule="evenodd" d="M487.9 31.5a9.5 9.5 0 00-7.1-2.8c-2.2 0-53.7 2.1-114.8 23.7a320 320 0 00-121.4 73.7c-7.1 7-14 14.5-20.6 22.3-31.2-18.3-56.2-12.6-72-4.1-36.4 19.5-59 72.4-59 110.2a9.6 9.6 0 0016.4 6.7 60.8 60.8 0 0150.6-17l3.4 3.4a336.1 336.1 0 00-15.8 46.4 27 27 0 001.1 16.6 90.5 90.5 0 00-25.8 18.2c-24.6 24.6-29.6 84.6-29.8 87.1a9.6 9.6 0 0010.3 10.3c2.5-.2 62.5-5.2 87.1-29.8 7.7-7.7 14-16.6 18.2-25.8a27 27 0 0016.6 1.2c15.2-4 30.7-9.2 46.4-15.8l3.4 3.3c1 7.8 2.2 31.4-17 50.6a9.6 9.6 0 006.7 16.3c37.9 0 90.8-22.5 110.2-58.9 8.5-15.8 14.3-40.8-4.1-72 7.8-6.6 15.3-13.5 22.3-20.5A320 320 0 00467 153.3a424.6 424.6 0 0023.7-114.7c.1-2.7-.9-5.3-2.7-7.1zm-311 351.4c-13 13.1-43.9 20-63.4 22.9 2.9-19.5 9.8-50.3 23-63.5 7.3-7.3 15.8-12.9 24.4-16l32.2 32.1A68.9 68.9 0 01177 383zm43.7-29.7a9 9 0 01-8.4-2.7l-43.4-43.4a9 9 0 01-2.7-8.3c3-12 7-24.2 12-36.5l79 79a310.2 310.2 0 01-36.5 12zm233-220.8L387 65.6c36.4-11.3 68-15.5 83.8-17a429.7 429.7 0 01-17 83.8zm-222.5 291a9.6 9.6 0 00-13.6 0l-27 27A9.6 9.6 0 00204 464l27-27a9.6 9.6 0 000-13.6zM82.4 288.3a9.6 9.6 0 1113.5 13.5l-27 27a9.6 9.6 0 11-13.6-13.5l27-27zm81 148.7a9.6 9.6 0 00-13.4 0l-64.8 64.7a9.6 9.6 0 1013.5 13.5l64.8-64.7a9.6 9.6 0 000-13.5zm-89.9 0A9.6 9.6 0 0187 450.5l-64.7 64.7a9.6 9.6 0 11-13.5-13.5L73.5 437zm8.9-81.1a9.6 9.6 0 00-13.5 0L4 420.6A9.6 9.6 0 1017.6 434l64.8-64.7a9.6 9.6 0 000-13.5zm263-150.4a31.5 31.5 0 100-63.1 31.5 31.5 0 000 63z" fill="#4AD268" fill-opacity=".5"/><path fill-rule="evenodd" clip-rule="evenodd" d="M378.4 111a47.8 47.8 0 10-67.6 67.4 47.8 47.8 0 0067.6-67.5zm-13.5 54a28.7 28.7 0 11-40.6-40.7A28.7 28.7 0 01365 165z" fill="#434343"/><path d="M256.8 232.6a9.6 9.6 0 10-13.6 13.5 9.6 9.6 0 0013.6-13.5zM283.8 192a9.6 9.6 0 0113.5 13.5l-13.5 13.6a9.6 9.6 0 01-13.5-13.6l13.5-13.5z" fill="#434343"/><path fill-rule="evenodd" clip-rule="evenodd" d="M479.4 0a9.5 9.5 0 0110 9.9c-.2 2.2-2.2 53.6-23.8 114.8A320 320 0 01391.9 246c-7 7-14.6 14-22.3 20.5 18.3 31.2 12.6 56.2 4.1 72-19.5 36.4-72.4 59-110.2 59a9.6 9.6 0 01-6.7-16.4 60.8 60.8 0 0017-50.6l-3.4-3.3a336.2 336.2 0 01-46.4 15.8 27 27 0 01-16.6-1.2 90.5 90.5 0 01-18.2 25.8c-24.6 24.6-84.6 29.6-87.1 29.8a9.5 9.5 0 01-7.5-2.7c-2-2-3-4.8-2.8-7.5.2-2.6 5.2-62.5 29.8-87.1 7.7-7.8 16.6-14 25.8-18.2a27 27 0 01-1.2-16.6 336 336 0 0115.8-46.5l-3.3-3.3c-7.8-1-31.4-2.2-50.6 17a9.6 9.6 0 01-16.3-6.8c0-37.8 22.5-90.7 58.9-110.2 15.8-8.4 40.8-14.2 72 4.2 6.6-7.8 13.5-15.3 20.5-22.4a320 320 0 01121.5-73.6A424.6 424.6 0 01479.4 0zM159.7 132.5c-23.4 12.5-40.6 44-46.6 72.8a81.7 81.7 0 0152.3-8 9.9 9.9 0 015 3c11.3-23.1 24.7-45 40.2-65.4-18.2-10-35.3-10.8-50.9-2.4zM112.2 377c19.5-2.8 50.3-9.7 63.5-22.9 7.3-7.3 12.9-15.9 16-24.4l-32.1-32.2a68.9 68.9 0 00-24.5 16c-13.1 13.2-20 44-22.9 63.5zM211 322a9 9 0 008.3 2.7c12-3 24.2-7.1 36.5-12l-79-79a310.4 310.4 0 00-12 36.5 9 9 0 002.8 8.4l43.4 43.4zm73.2 54.3c28.7-6 60.2-23.2 72.8-46.6 8.3-15.6 7.5-32.7-2.4-50.9A386.6 386.6 0 01289 319v.1c.6.6 2.2 2 2.8 4.7a81.3 81.3 0 01-7.8 52.5zm66.7-118.9c9.7-7.8 19-16.1 27.6-24.7a298 298 0 0067-108.7l-80-80a298 298 0 00-108.6 67 367.2 367.2 0 00-72 103.8l89.9 89.8c27.3-12.6 52.9-28.5 76.1-47.2zM385.6 37l66.8 66.8c11.3-36.4 15.5-68 17-83.9a429.7 429.7 0 00-83.8 17z" fill="#434343"/><path d="M229.7 394.8a9.6 9.6 0 00-13.5 0l-27 27a9.6 9.6 0 0013.5 13.5l27-27a9.6 9.6 0 000-13.5zM81 259.6a9.6 9.6 0 1113.6 13.5l-27 27A9.6 9.6 0 1154 286.6l27-27zM162.1 408.3a9.6 9.6 0 00-13.5 0L84 473a9.6 9.6 0 1013.5 13.5l64.7-64.7a9.6 9.6 0 000-13.5zM72.2 408.3a9.6 9.6 0 0113.5 13.5L21 486.5A9.6 9.6 0 117.4 473l64.8-64.7zM81 327.2a9.6 9.6 0 00-13.5 0L2.8 391.9a9.6 9.6 0 0013.5 13.5L81 340.7a9.6 9.6 0 000-13.5z" fill="#434343"/></svg>