<svg fill="none" xmlns="http://www.w3.org/2000/svg" viewBox="0 0 622 518"><path d="M368.6 275.4H115.4c-4.9 0-8.8 4-8.8 8.8v178.1c0 4.9 4 8.8 8.8 8.8h253.2c4.8 0 8.8-4 8.8-8.8V284.2c0-4.9-4-8.8-8.8-8.8z" fill="#4AD268" fill-opacity=".5"/><path fill-rule="evenodd" clip-rule="evenodd" d="M593.6 500.5h-10V240.2a81.4 81.4 0 0037.6-68.6c0-1.5-.4-3-1.2-4.3L550.4 45.5a27.6 27.6 0 00-24-14H117c-9.9 0-19 5.4-23.9 14L23.4 167.3a8.8 8.8 0 00-1.2 4.3c0 28.8 15 54 37.5 68.6v260.3h-10a8.8 8.8 0 100 17.5h544a8.8 8.8 0 100-17.5zm-27.5 0h-29.3V284.2c0-4.9-4-8.8-8.8-8.8H415.5c-4.9 0-8.8 4-8.8 8.8v216.3H77.3V248.7a81 81 0 0099-40.3 81.5 81.5 0 00145.4 0 81.5 81.5 0 00145.3 0 81.5 81.5 0 0099.1 40.3v251.8z" fill="#4AD268" fill-opacity=".5"/><path fill-rule="evenodd" clip-rule="evenodd" d="M93.2 243.8h253.2c4.8 0 8.7 4 8.7 8.8v178.2c0 4.8-3.9 8.7-8.7 8.7H93.2c-4.9 0-8.8-3.9-8.8-8.7V252.6c0-4.9 4-8.8 8.8-8.8zm8.7 178.2h235.7V261.4H101.9V422z" fill="#434343"/><path fill-rule="evenodd" clip-rule="evenodd" d="M561.4 468.9h10a8.8 8.8 0 010 17.5H27.5a8.8 8.8 0 110-17.5h10V208.6A81.4 81.4 0 010 140c0-1.6.4-3 1.2-4.4L70.8 13.9C75.7 5.3 84.8 0 94.7 0h409.6c9.8 0 19 5.3 23.9 13.9l69.6 121.8a8.8 8.8 0 011.1 4.4c0 28.7-15 54-37.5 68.5v260.3zm-515.1-320H18.2a64 64 0 00126.5 0h-61a8.8 8.8 0 110-17.6h431.5a8.8 8.8 0 110 17.5h-61a64 64 0 00126.6 0h-28.1a8.8 8.8 0 110-17.5H575L513 22.6a10 10 0 00-8.7-5H94.7a10 10 0 00-8.7 5L24 131.3h22.4a8.8 8.8 0 010 17.5zm325.8 55a64 64 0 0063.3-55H309a64 64 0 0063.2 55zm-145.3 0a64 64 0 0063.3-55H163.5a64 64 0 0063.3 55zM402 469h95v-29.4h-95V469zm0-47h95V261.5h-95V422zm112.5 47H544V217a81 81 0 01-99-40.3 81.5 81.5 0 01-145.4 0 81.5 81.5 0 01-145.4 0 81.5 81.5 0 01-99 40.3v251.8h329.4V252.6c0-4.9 3.9-8.8 8.7-8.8h112.6c4.8 0 8.7 4 8.7 8.8v216.3z" fill="#434343"/></svg>