<svg fill="none" xmlns="http://www.w3.org/2000/svg" viewBox="0 0 100 100"><path d="M14.9 33.3a1.7 1.7 0 00-1.7 1.7v10a1.7 1.7 0 001.7 1.7h10a1.7 1.7 0 001.6-1.7v-8l7.6-5.7-2-2.6-6.5 4.9c-.2-.2-.5-.3-.8-.3H15zm6 8l2.3-1.7v3.7h-6.6v-6.6h5l-2.7 2 2 2.6zM25.6 53.6c-.2-.2-.5-.3-.8-.3H15a1.7 1.7 0 00-1.7 1.7v10a1.7 1.7 0 001.7 1.7h10a1.7 1.7 0 001.6-1.7v-8l7.6-5.7-2-2.6-6.5 4.9zm-2.4 9.7h-6.6v-6.6h5l-2.7 2 2 2.6 2.3-1.7v3.7zM32.1 68.7l-6.5 4.9c-.2-.2-.5-.3-.8-.3H15a1.7 1.7 0 00-1.7 1.7v10a1.7 1.7 0 001.7 1.7h10a1.7 1.7 0 001.6-1.7v-8l7.6-5.7-2-2.6zm-9 14.6h-6.5v-6.6h5l-2.7 2 2 2.6 2.3-1.7v3.7zM39.7 30H63v3.3H39.7V30zM39.7 40H63v3.3H39.7V40zM39.7 50h16.6v3.3H39.7V50zM39.7 60h6.7v3.3h-6.7V60z" fill="#4AD268"/><path d="M99.5 26.2l-4.7-4.7a1.7 1.7 0 00-2.3 0L76.2 38V15a5 5 0 00-5-5H56.3V8.3a1.7 1.7 0 00-1.7-1.6H48v-5A1.7 1.7 0 0046.4 0H29.8a1.7 1.7 0 00-1.6 1.7v5h-6.7A1.7 1.7 0 0020 8.3V10h-15A5 5 0 000 15v80a5 5 0 005 5h66.2a5 5 0 005-5V52l23.3-23.4a1.7 1.7 0 000-2.4zm-48 46l-2.3-2.4L87.8 31l2.3 2.4-38.6 38.9zm-4.4.3l1.7 1.7-4.2 2.6 2.5-4.3zm24.1-59.2A1.7 1.7 0 0173 15v26.3l-3.3 3.3V18.3a1.7 1.7 0 00-1.7-1.6H56.3v-3.4h15zm-39.7-10h13.2v3.4H31.5V3.3zM23.2 10H53v10H23.2V10zm31.4 13.3a1.7 1.7 0 001.7-1.6V20h10v28L45.5 68.6l-.2.3-7 11.8a1.7 1.7 0 001.3 2.5H63V80H45.7l6.7-4 .3-.3 13.5-13.6V90H10V20h10v1.7a1.7 1.7 0 001.6 1.6h33.1zM73 95a1.7 1.7 0 01-1.7 1.7H5A1.7 1.7 0 013.3 95V15A1.7 1.7 0 015 13.3h14.9v3.4H8.3a1.7 1.7 0 00-1.7 1.6v73.4a1.7 1.7 0 001.7 1.6h59.6a1.7 1.7 0 001.7-1.6v-33l3.3-3.3V95zm19.6-64L90 28.5l3.6-3.6 2.3 2.4-3.5 3.5z" fill="#4AD268"/></svg>