<svg fill="none" xmlns="http://www.w3.org/2000/svg" viewBox="0 0 100 100"><path d="M100 38.2V38l-.2-.3-.1-.3-.3-.2-16-12.5v-13a5 5 0 00-5-5H60.2L53 1a5 5 0 00-6 0l-7.3 5.7h-18a5 5 0 00-5 5v12.9L.7 37H.5l-.3.3-.1.3-.1.3v.3l-.1.1V95a5 5 0 005 5h90a5 5 0 005-5V38.3zM49 3.7c.6-.5 1.4-.5 2 0l3.8 3h-9.6l3.8-3zm-43.6 93L49 62.8c.6-.5 1.4-.5 2 0l43.6 33.9H5.4zM96.7 94L53 60a5 5 0 00-6 0l-43.7 34V40.9L30.6 62a1.7 1.7 0 102-2.7L5 38l11.8-9.1v12.9a1.7 1.7 0 003.3 0v-30c0-1 .7-1.7 1.7-1.7h56.6c1 0 1.7.7 1.7 1.7v30a1.7 1.7 0 103.3 0v-13L95.1 38 67.3 59.5a1.7 1.7 0 102 2.6L96.7 41V94z" fill="#4AD268"/><path d="M65.7 12.7v3H34.3v-3h31.4zM60.8 19.6v3H29.4v-3h31.4zM42.2 26.5v3H23.5v-3h18.7zM75.5 26.5v3H48v-3h27.5zM76.5 19.6v3h-9.8v-3h9.8zM54.9 33.3v3H23.5v-3H55z" fill="#4AD268"/></svg>