<svg fill="none" xmlns="http://www.w3.org/2000/svg" viewBox="0 0 100 100"><path d="M41.4 37.2a2 2 0 01-2-1.4 2 2 0 01.7-2.1c.6-.5 1.6-.6 2.4-.1a2 2 0 01.9 2 2 2 0 01-2 1.6zM32 37.2h-7a2 2 0 01-2-2c0-1 .8-2 2-2h7a2 2 0 012.1 2c0 1-.9 2-2 2zM58.5 37.2h-7.8a2 2 0 01-2-2c0-1 .9-2 2-2h7.8a2 2 0 012 2c0 1-.9 2-2 2z" fill="#4AD268"/><path d="M98 56.4H82.7v-41a8 8 0 00-8.2-7.8H51.8A10.6 10.6 0 0041.4 0c-5 0-9.2 3.2-10.3 7.6H8.2A8 8 0 000 15.4v76.8a8 8 0 008.2 7.8H98a2 2 0 002.1-2V58.3c0-1-1-2-2-2zm-45.2 0a2 2 0 00-2 2V62H25a2 2 0 00-2 2c0 1 .8 1.9 2 1.9h25.7v10.5H25a2 2 0 00-2 1.9c0 1 .8 2 2 2h25.7v7H13.4v-67h10.1c2 3.7 6 6.2 10.7 6.2h14.4a12 12 0 0010.7-6.2h10.1v36H52.8zm16.3 3.9h12.6v13.6l-5.6-2a2.2 2.2 0 00-1.4 0L69 74V60.3zm9.6-44.9v41h-5.2v-38c0-1.1-.9-2-2-2h-11v-4.9h14a4 4 0 014.2 3.9zm-45.9-3.9a2 2 0 002-1.8c.3-3.3 3.1-5.8 6.6-5.8C45 4 47.7 6.4 48 9.7c.1 1 1 1.8 2 1.8h6.5v3.7c0 4-3.5 7.4-7.8 7.4H34.2a7.6 7.6 0 01-7.8-7.4v-3.7h6.4zM4.1 92.2V15.4a4 4 0 014.1-3.9h14v3.7l.1 1.2h-11a2 2 0 00-2 2v70.9c0 1 1 2 2 2h39.4V96H8.2a4 4 0 01-4-3.9zM96 96.1h-41V60.3h10v16.3c0 .7.4 1.3 1 1.6.5.4 1.2.5 1.8.3l7.7-2.6 7.6 2.6a2.2 2.2 0 002-.3c.5-.3.8-1 .8-1.6V60.3h10V96z" fill="#4AD268"/><path d="M58.5 51.5H25a2 2 0 01-2-2c0-1 .8-1.9 2-1.9h33.5a2 2 0 012 2c0 1-.9 2-2 2z" fill="#4AD268"/></svg>