<svg fill="none" xmlns="http://www.w3.org/2000/svg" viewBox="0 0 100 100"><path d="M8.3 8.3a1.7 1.7 0 100-3.3 1.7 1.7 0 000 3.3zM13.3 8.3a1.7 1.7 0 100-3.3 1.7 1.7 0 000 3.3zM18.3 8.3a1.7 1.7 0 100-3.3 1.7 1.7 0 000 3.3zM18.3 43.3a13.3 13.3 0 100-26.6 13.3 13.3 0 000 26.6zm0-3.3l-1.6-.1V30h2.6l2.9 2.8a1.7 1.7 0 002.3 0l2.9-2.8h1a10 10 0 01-10 10zm9.5-13.3h-1.1c-.5 0-.9.1-1.2.5l-2.2 2.1-2.1-2.1c-.3-.4-.8-.5-1.2-.5h-3.3V20a10 10 0 0111 6.6zm-14.5-5.4v5.4H9a10 10 0 014.4-5.4zm0 8.7v8.7a10 10 0 01-5-8.7h5zM40 18.3h11.7v3.4H40v-3.4zM6.7 56.7h15V60h-15v-3.3zM6.7 65H10v3.3H6.7V65zM13.3 65H30v3.3H13.3V65zM6.7 73.3H20v3.4H6.7v-3.4zM23.3 73.3H30v3.4h-6.7v-3.4zM43.3 31.7h3.4V35h-3.4v-3.3zM50 31.7h13.3V35H50v-3.3zM40 40h15v3.3H40V40zM58.3 40h5v3.3h-5V40zM40 48.3h10v3.4H40v-3.4zM6.7 48.3h10v3.4h-10v-3.4zM84 76.6a20 20 0 10-7.4 7.4l14.5 14.5a5.2 5.2 0 007.4-7.4L84 76.6zm-34-10a16.7 16.7 0 1133.3 0 16.7 16.7 0 01-33.3 0zm32 12.8l2.3 2.3-2.6 2.6-2.3-2.2c1-.8 1.9-1.7 2.7-2.7zm12.8 17.3a1.9 1.9 0 01-1.3-.6L84 86.7l2.7-2.7 9.4 9.5a1.9 1.9 0 01-1.3 3.2z" fill="#4AD268"/><path d="M70 41.7V8.3A8.3 8.3 0 0061.7 0H8.3A8.3 8.3 0 000 8.3v70a8.3 8.3 0 008.3 8.4h40v-3.4H36.7v-70h30v28.4H70zM33.3 83.3h-25a5 5 0 01-5-5v-65h30v70zM3.3 10V8.3a5 5 0 015-5h53.4a5 5 0 015 5V10H3.3z" fill="#4AD268"/><path d="M66.7 53.3v3.4a10 10 0 11-10 10h-3.4a13.3 13.3 0 1013.4-13.4zM40 56.7h5V60h-5v-3.3zM40 73.3h5v3.4h-5v-3.4zM40 65h3.3v3.3H40V65z" fill="#4AD268"/></svg>