<svg fill="none" xmlns="http://www.w3.org/2000/svg" viewBox="0 0 150 143"><path d="M0 16.6c0-4.8 1.7-8.8 5-12C8.5 1.7 12.9 0 18.3 0a18 18 0 0113 4.6c3.3 3.2 5 7.3 5 12.4 0 4.7-1.6 8.5-5 11.6A18.7 18.7 0 0118 33.4h-.2c-5.3 0-9.6-1.6-12.9-4.8a16 16 0 01-4.9-12zM1.9 143V46.5H34V143H2zm50 0h32V89.1c0-3.3.5-6 1.2-7.8a21 21 0 016.2-8.3c2.7-2.2 6.2-3.4 10.3-3.4 10.9 0 16.3 7.3 16.3 21.8V143H150V87.7c0-14.3-3.4-25-10.1-32.5a34.6 34.6 0 00-26.8-11 32.9 32.9 0 00-29.1 16v.3h-.2l.2-.3V46.5H51.8c.2 3 .3 12.7.3 28.8 0 16 0 38.6-.3 67.7z" fill="#4AD268"/></svg>