<svg fill="none" xmlns="http://www.w3.org/2000/svg" viewBox="0 0 305 56"><path d="M21 46.8a7.9 7.9 0 01-2.6 6c-.8.6-1.8 1.2-2.9 1.6-1 .4-2.2.6-3.4.6h-1.5a9.5 9.5 0 01-6.2-2.3 8 8 0 01-2-2.6c-.4-1-.6-2.1-.6-3.3v-.1a8 8 0 012.4-5.8 6.5 6.5 0 01-3-5.5 6.5 6.5 0 012.5-5.2 9 9 0 01-3.1-6.7v-2.3a8.8 8.8 0 018.8-8.8H11c1.5 0 2.8.3 4 1 1.3.7 2.3 1.5 3.2 2.6l2-3h1.1v10.5c0 1.2-.2 2.3-.7 3.4a8.7 8.7 0 01-8 5.4H7.1c-.4 0-.8 0-1.2.3-.3.1-.7.3-1 .6a3 3 0 00-.6 1 3 3 0 000 2.4l.6 1 1 .6c.4.2.8.2 1.2.2h5a9.5 9.5 0 016.2 2.3c.8.7 1.4 1.6 1.8 2.6.5 1 .7 2.2.7 3.4zM17.6 21a5 5 0 00-.5-2 5.2 5.2 0 00-4.8-3.2h-3A5.2 5.2 0 004.2 21v2.7a5.2 5.2 0 005.2 5.2h3a5.2 5.2 0 005.2-5.2V21zm-.2 25.5A4.2 4.2 0 0016 43a5 5 0 00-1.7-1l-2-.2h-1.9c-.7 0-1.4 0-2 .3-.6.2-1.2.5-1.6.9a4.2 4.2 0 00-1.6 3.4v.5c0 .7.2 1.3.4 1.9.3.6.7 1 1.2 1.4.4.4 1 .7 1.6 1 .6.2 1.3.3 2 .3h1.9c.7 0 1.4-.1 2-.3a4.8 4.8 0 002.8-2.4c.3-.6.4-1.2.4-2v-.4zM48 34.8c0 1.2-.2 2.3-.7 3.4a8.7 8.7 0 01-8.1 5.4h-2.4a8.8 8.8 0 01-8.9-8.8V21.2a8.8 8.8 0 018.9-8.8H39c1.2 0 2.3.2 3.4.7a8.7 8.7 0 015.4 8.1v13.6zM44.3 21a5.2 5.2 0 00-5.2-5.2h-2.4a5.2 5.2 0 00-5.2 5.2v14a5.2 5.2 0 005.2 5.2H39a5.2 5.2 0 005.2-5.2V21zm134 14.4a7.6 7.6 0 01-2.7 5.9 9.5 9.5 0 01-6.4 2.3h-2.4a9.2 9.2 0 01-8.4-5.4c-.5-1-.7-2.2-.7-3.4v-1.2l3.6-.6v2a4.9 4.9 0 001.7 3.7 5.9 5.9 0 003.8 1.5h2.4c.7 0 1.4-.1 2-.3.8-.2 1.3-.6 1.8-1a4 4 0 001.7-3.4c0-1-.2-1.9-.7-2.6-.4-.7-1-1.2-1.8-1.7l-2.7-1.1a92.5 92.5 0 00-6-2c-1-.4-1.9-.9-2.7-1.5a7.3 7.3 0 01-2.5-6 7.7 7.7 0 012.6-5.9 9.5 9.5 0 016.2-2.3h2.1c1.2 0 2.4.2 3.4.7a8.7 8.7 0 015.4 8.1v.1l-3.6.6V21a5.2 5.2 0 00-5.2-5.2h-2.1c-.7 0-1.4.1-2 .3a4.9 4.9 0 00-2.8 2.4c-.3.6-.4 1.2-.4 2 0 1 .2 1.8.7 2.5a6 6 0 001.8 1.6c.8.5 1.7.9 2.7 1.2a106.3 106.3 0 016 2c1 .4 1.9 1 2.6 1.6a7 7 0 012 2.4 8 8 0 01.6 3.6zm27-.6c0 1.2-.3 2.3-.7 3.4a8.7 8.7 0 01-8.1 5.4H194a8.8 8.8 0 01-8.9-8.8V21.2a8.8 8.8 0 018.9-8.8h2.4c1.2 0 2.3.2 3.4.7a8.6 8.6 0 015.4 8.1v13.6zM201.7 21a5.2 5.2 0 00-5.2-5.2H194a5.2 5.2 0 00-5.3 5.2v14a5.2 5.2 0 005.3 5.2h2.4a5.2 5.2 0 005.2-5.2V21zm29.6 22l-2-3a8.6 8.6 0 01-7.1 3.6h-.9a8.8 8.8 0 01-8.8-8.8V13h3.6v22a5.2 5.2 0 005.2 5.2h2.4a5.2 5.2 0 005.2-5.2V13h3.6v30h-1.2zm17.2-26.6a5.2 5.2 0 00-5.2 5.2V43h-3.6V13h1.2l2 3a8.9 8.9 0 017.1-3.6h2.1v4h-3.6zM277 34.8c0 1.2-.2 2.3-.7 3.4a8.7 8.7 0 01-8.1 5.4h-2.4a8.8 8.8 0 01-8.8-8.8V21.2a8.8 8.8 0 018.8-8.8h2.4c1.2 0 2.3.2 3.4.7a8.7 8.7 0 015.4 8.1v1.2l-3.6.6v-2a5.2 5.2 0 00-5.2-5.2h-2.4a5.2 5.2 0 00-5.2 5.2v14a5.2 5.2 0 005.2 5.2h2.4a5.2 5.2 0 005.2-5.2v-2l3.6.6v1.2zm27.2 0c0 1.2-.2 2.3-.7 3.4a8.7 8.7 0 01-8 5.4H293a8.8 8.8 0 01-8.8-8.8V21.2a8.8 8.8 0 018.8-8.8h2.4c1.2 0 2.4.2 3.4.7a8.7 8.7 0 015.4 8.1v7h-16.4V35a5.2 5.2 0 005.2 5.2h2.4a5.2 5.2 0 005.2-5.2v-2l3.6.6v1.2zM300.6 21a5.2 5.2 0 00-5.2-5.2H293a5.2 5.2 0 00-5.2 5.2v4.5h12.8V21z" fill="#4AD268"/><path d="M66 43a8 8 0 01-7.3-4.8c-.4-1-.6-2-.6-3.1V16.4h-5.4V13H58V5.8l3.6-.6V13h7.6v3.4h-7.6v18.9c0 .6 0 1.1.3 1.7a4.6 4.6 0 002.3 2.3c.6.2 1.1.3 1.7.3h3.3V43H66zm30-8.2c0 1.2-.2 2.3-.7 3.4a8.7 8.7 0 01-8.1 5.4h-2.4a8.8 8.8 0 01-8.8-8.8V21.2a8.8 8.8 0 018.8-8.8h2.4c1.2 0 2.3.2 3.4.7a8.7 8.7 0 015.4 8.1v7H79.6V35a5.2 5.2 0 005.2 5.2h2.4a5.2 5.2 0 005.2-5.2v-2l3.6.6v1.2zM92.4 21a5.2 5.2 0 00-5.2-5.2h-2.4a5.2 5.2 0 00-5.2 5.2v4.5h12.8V21zm30.8 13.8c0 1.2-.2 2.3-.7 3.4a8.7 8.7 0 01-8 5.4H112a8.8 8.8 0 01-8.8-8.8V21.2a8.8 8.8 0 018.8-8.8h2.4c1.2 0 2.4.2 3.4.7a8.7 8.7 0 015.4 8.1v1.2l-3.6.6v-2a5.2 5.2 0 00-5.2-5.2H112a5.2 5.2 0 00-5.2 5.2v14a5.2 5.2 0 005.2 5.2h2.4a5.2 5.2 0 005.2-5.2v-2l3.6.6v1.2zM147 43V21a5.2 5.2 0 00-5.2-5.2h-2.4A5.2 5.2 0 00134 21v22h-3.7V1h3.7v14.5a8.7 8.7 0 016.7-3h.9c1.2 0 2.3.1 3.4.6a8.7 8.7 0 015.4 8.1V43h-3.6z" fill="#555"/></svg>