<svg fill="none" xmlns="http://www.w3.org/2000/svg" viewBox="0 0 176 143"><path d="M117.6 0h8.3l3 .6A32.3 32.3 0 01139 4.4a45.4 45.4 0 017.5 5.3c1 1 2.5 1.3 4.6.8a61 61 0 0013.7-4.9 81.7 81.7 0 005-2.5h.2l.2-.2h.1l.2-.1v-.1h.1l.2-.1h.2v.2l-.1.2v.3l-.2.2v.2l-.1.1-.1.2-.2.7-1.5 3.2a39.7 39.7 0 01-11 13l-.8.6h-.1l-.2.2h-.1v.1l-.2.1h-.2v.1h-.1v.1l-.1.1-.1.1h.8l4.4-1c3-.6 5.8-1.4 8.5-2.3l4.3-1.4.5-.1.2-.1.2-.1h.1l.2-.2h.5l.3-.1v.3h-.2v.1l-.1.1-.1.1v.1h-.1l-.1.2-.1.2a728.4 728.4 0 01-4.7 5.9c-.1.3-1.3 1.5-3.3 3.5-2 2.1-4.1 4-6 5.5-2 1.7-3 3.7-3.1 6a140.2 140.2 0 01-1.6 17.6 114.2 114.2 0 01-17.8 43.8 107.3 107.3 0 01-18.3 20 108.8 108.8 0 01-11.6 8.2l-6.3 3.5a75.3 75.3 0 01-17 6.7 82.7 82.7 0 01-19.3 3.6l-5.7.5v.1H50.3l-1.3-.2a76 76 0 01-8.8-1 95 95 0 01-9-1.6 119.1 119.1 0 01-29-11.8l-1.4-.9H.6v-.1l-.2-.1H.3v-.1l-.1-.1v-.1H0v-.3H.3l.7.1a94.3 94.3 0 0018-.5 82.3 82.3 0 0024.1-7.9c1.2-.6 3-1.7 5.5-3.3l3.6-2.5.1-.1.1-.1h.1v-.1H52.8v-.2l.1-.2h.1l-1.3-.2-2.4-.1c-.8 0-2-.3-3.8-.7a35.8 35.8 0 01-11.1-5 28.2 28.2 0 01-7.2-6.1 32.1 32.1 0 01-6.1-9.5l-1.3-2.8-.1-.3-.1-.2V86.7h.4l1.7.3c1.2.1 3 .2 5.5.1a42.4 42.4 0 007-.6h.2l.4-.2h.4l.1-.1V86h-.2l-.3-.2h-.4l-.3-.1-.3-.1a29.2 29.2 0 01-5.4-2A32.8 32.8 0 0111 66.8 38.1 38.1 0 017 53.5l-.3-3.3H7.1l.2.1h.2l.1.2h.2l2.4 1.2a70.4 70.4 0 0010.5 2.8H23h-.1l-.1-.1v-.1h-.1v-.1h-.2l-.2-.2H22v-.1l-.2-.1h-.2v-.1l-1.4-1-2.7-2.6c-1-1-1.9-2.2-2.8-3.4-1-1.1-1.8-2.4-2.6-3.7A45.2 45.2 0 018 31.8 35 35 0 0110.5 10l1.3-3 .1-.3v-.2h.1v-.1h.2l.1.1.1.1.1.2.1.2h.1l2.1 2.4a141.7 141.7 0 0012.3 12A93.3 93.3 0 0044 32.2a137.7 137.7 0 0020 8.2l8.4 1.8a124.6 124.6 0 0013 1.8h1.2v-.5l-.4-2a37.3 37.3 0 01.2-12A39 39 0 0193 14.1a34.2 34.2 0 0110.9-9.4A41.3 41.3 0 01117.6 0z" fill="#4AD268"/></svg>