<svg fill="none" xmlns="http://www.w3.org/2000/svg" viewBox="0 0 598 538"><path d="M217.8 187c6.3-86 87.4-154 186.2-154 98 0 193.3 69.2 193.3 164.6 0 38.4-15.2 75.6-42.8 105a66.8 66.8 0 0017.6 63 11 11 0 01-7.7 18.7c-31.4 0-61.5-12.3-84-34a247 247 0 01-65.8 11.8c-6.3 85.8-87.4 154-186.2 154-26 0-54.6-4.6-76.4-12A121.1 121.1 0 0168 538a11 11 0 01-7.7-18.7 66.8 66.8 0 0017.7-63 153.4 153.4 0 01-42.9-105c0-91.8 88.6-159.6 182.7-164.4z" fill="#4AD268" fill-opacity=".5"/><path d="M305.2 153.7a11 11 0 1122 0 11 11 0 01-22 0zM145 329.4a11 11 0 11-22 0 11 11 0 0122 0zM316.2 318.4H178a11 11 0 100 22h138.3a11 11 0 100-22zM134 384.3h182.2a11 11 0 110 22H134a11 11 0 110-22zM498.5 142.7H360a11 11 0 100 22h138.4a11 11 0 100-22zM331.5 208.6h164.9c7.2 0 13 5 13 11s-5.8 11-13 11h-165c-7.1 0-13-5-13-11s5.9-11 13-11z" fill="#fff"/><path d="M281 109.8a11 11 0 100 22 11 11 0 000-22zM98.8 307.4a11 11 0 100-22 11 11 0 000 22z" fill="#434343"/><path d="M369 0c-99 0-180 68.2-186.3 154C88.5 158.7 0 226.6 0 318.4c0 38.4 15.2 75.6 42.8 105a66.8 66.8 0 01-17.6 63 11 11 0 007.7 18.7c31.4 0 61.5-12.3 84-34 21.8 7.5 50.3 12 76.3 12 98.9 0 180-68.1 186.3-154 23-1 46.9-5.2 65.8-11.7 22.4 21.7 52.6 34 84 34a11 11 0 007.7-18.8 66.8 66.8 0 01-17.7-63 153.4 153.4 0 0042.9-105C562.2 69.4 466.8 0 368.9 0zM193.1 461.1c-25.9 0-55.4-5-75.2-13A11 11 0 00106 451a99 99 0 01-49.3 29.2 88.8 88.8 0 006.7-65.3 11 11 0 00-2.7-4.7A132 132 0 0122 318.4c0-77.4 78.4-142.7 171.2-142.7 87.7 0 164.7 61 164.7 142.7 0 78.7-73.8 142.7-164.7 142.7zm308.4-204.6a11 11 0 00-2.7 4.7 88.8 88.8 0 006.7 65.3 99 99 0 01-49.3-29.2 11 11 0 00-12.2-2.8 216.3 216.3 0 01-64.6 12.7c-3.3-41.6-24-80.6-59.4-109.6h143.2a11 11 0 100-22h-177c-24.8-12.6-52.8-20-81.6-21.6C211 80.3 282.2 22 368.9 22c92.9 0 171.3 65.3 171.3 142.7a132 132 0 01-38.6 91.8z" fill="#434343"/><path d="M281 285.5H142.8a11 11 0 100 22h138.4a11 11 0 100-22zM281 351.3H98.9a11 11 0 100 22h182.3a11 11 0 100-22zM463.3 109.8H325a11 11 0 100 22h138.3a11 11 0 100-22z" fill="#434343"/></svg>