<svg fill="none" xmlns="http://www.w3.org/2000/svg" viewBox="0 0 517 538"><path d="M213.3 189.4a102.4 102.4 0 00-46.8 84 8.5 8.5 0 1017.1 0c.6-28 15-54 38.5-69.4a8.5 8.5 0 00-8.8-14.6z" fill="#4AD268" fill-opacity=".5"/><path fill-rule="evenodd" clip-rule="evenodd" d="M432 273.5a42.7 42.7 0 110 17H327.7c-2 9.4-7 17.8-14.4 23.9l28.9 53h29.9a42.7 42.7 0 110 17h-26.5v56.2l29.2 29.1h40a42.7 42.7 0 110 17.1h-40c-4.6 0-8.9-1.8-12.1-5l-7.3-7.3c-6 2.2-12.1 4.1-18.3 5.7V521a17 17 0 01-17 17.1h-68.3a17 17 0 01-17.1-17v-40.8a202 202 0 01-52.8-21.8l-28.7 28.7c-3.2 3.3-7.6 5-12.1 5-4.6 0-9-1.8-12.2-5L81 438.8a17 17 0 010-24.3l28.7-28.6c-9.8-16.5-17.1-34.3-21.8-52.8H47a17 17 0 01-17.1-17v-68.3a17 17 0 0117-17.1h40.8c4.7-18.6 12-36.3 21.8-52.8l-28.7-28.7a17 17 0 010-24.3L129.2 77a16.9 16.9 0 0124.3 0l28.6 28.7a202 202 0 0152.8-21.8V43a17 17 0 0117-17.1h68.3a17 17 0 0117.1 17v40.8c6.2 1.6 12.3 3.5 18.3 5.7l7.3-7.3c3.2-3.2 7.5-5 12-5h40a42.7 42.7 0 110 17h-40l-29 29.2v56.2h26.4a42.7 42.7 0 110 17h-30l-28.8 53a42.5 42.5 0 0114.4 23.9h104.1zm-103.3 138V378l-30.2-55.4a42.7 42.7 0 110-81.2l30.2-55.4v-33.6a136.5 136.5 0 100 259.2z" fill="#4AD268" fill-opacity=".5"/><path d="M183.3 163.4a102.4 102.4 0 00-46.8 84 8.5 8.5 0 1017.1 0c.6-28 15-54 38.5-69.4a8.5 8.5 0 00-8.8-14.6z" fill="#434343"/><path d="M443.7 213.3a42.7 42.7 0 00-41.8 34.2H298c-2-9.4-7.1-17.8-14.5-23.9l28.9-53h29.9a42.7 42.7 0 100-17h-26.5V97.4L345 68.3h40a42.7 42.7 0 100-17.1h-40c-4.6 0-8.9 1.8-12.1 5l-7.3 7.3c-6-2.2-12.1-4.1-18.3-5.7V17a17 17 0 00-17-17.1h-68.3a17 17 0 00-17.1 17v40.8A202 202 0 00152 79.6L123.4 51a16.9 16.9 0 00-12.2-5.2c-4.6 0-9 1.8-12.1 5L51 99a17 17 0 00-.1 24.3L79.6 152c-9.8 16.5-17.1 34.3-21.8 52.8H17a17 17 0 00-17.1 17v68.3a17 17 0 0017 17.1h40.8c4.7 18.6 12 36.3 21.8 52.8L51 388.6a17 17 0 00-.1 24.3L99 461a16.8 16.8 0 0024.3 0l28.7-28.6a202 202 0 0052.8 21.8V495a17 17 0 0017 17.1h68.3a17 17 0 0017.1-17v-40.8c6.2-1.6 12.3-3.5 18.3-5.7l7.3 7.3c3.2 3.2 7.5 5 12 5h40a42.7 42.7 0 100-17h-40l-29-29.2v-56.2h26.4a42.7 42.7 0 100-17h-30l-28.8-53a42.5 42.5 0 0014.4-23.9h104.1a42.7 42.7 0 1041.8-51.2zm-17-179.2a25.6 25.6 0 110 51.2 25.6 25.6 0 010-51.2zm0 392.6a25.6 25.6 0 110 51.2 25.6 25.6 0 010-51.2zM256 281.6a25.6 25.6 0 110-51.2 25.6 25.6 0 010 51.2zm128-145a25.6 25.6 0 110 51.1 25.6 25.6 0 010-51.2zm-87.2 302.6c-3.9.8-6.7 4.3-6.7 8.3v47.4H222v-47.4c0-4-2.8-7.5-6.7-8.3-21.3-4.7-41.6-13-60-24.8a8.5 8.5 0 00-10.5 1.2l-33.5 33.5L63 400.8l33.4-33.5a8.5 8.5 0 001.2-10.6 185.5 185.5 0 01-24.8-59.9c-.8-3.9-4.3-6.7-8.3-6.7H17.1V222h47.4c4 0 7.5-2.8 8.3-6.7 4.7-21.3 13-41.6 24.8-60a8.5 8.5 0 00-1.2-10.5L63 111.2l48.2-48.3 33.5 33.5a8.5 8.5 0 0010.6 1.2c18.3-11.7 38.6-20 59.9-24.7 3.9-1 6.7-4.4 6.7-8.4V17.1H290v47.4c0 4 2.8 7.5 6.7 8.3 5.3 1.2 10.4 2.6 15.3 4.1l-8.4 8.4a17 17 0 00-5 12.1v11a153.6 153.6 0 100 295.1v11.1a17 17 0 005 12l8.4 8.5c-5 1.5-10 2.9-15.3 4zm87.2-115a25.6 25.6 0 110 51.3 25.6 25.6 0 010-51.2zM298.7 352v33.6a136.5 136.5 0 110-259.2V160l-30.2 55.4a42.7 42.7 0 100 81.2l30.2 55.4zm145-70.4a25.6 25.6 0 110-51.2 25.6 25.6 0 010 51.2z" fill="#434343"/></svg>