<svg fill="none" xmlns="http://www.w3.org/2000/svg" viewBox="0 0 574 538"><path fill-rule="evenodd" clip-rule="evenodd" d="M408.2 123.3a209.8 209.8 0 11-241 278.5H94a10.3 10.3 0 110-20.6h66.7c-3.4-12.8-5.5-26.1-6.4-39.8h-45.8a10.3 10.3 0 010-20.6H154a210 210 0 015.2-39.7H52.7a10.3 10.3 0 010-20.7H165c4.7-13.7 10.8-27 18.4-39.7H123a10.3 10.3 0 110-20.7H197.5a209.7 209.7 0 01119.3-76.2v-26a35.2 35.2 0 018.5-69.1h74.4a35.2 35.2 0 018.5 69.2v25.4zm-20.7-3.4a212 212 0 00-50 .3V98.9h50v21zm-76.7-56.1c0-8 6.5-14.5 14.5-14.5h74.4a14.5 14.5 0 010 29h-74.4c-8 0-14.5-6.5-14.5-14.5z" fill="#4AD268" fill-opacity=".5"/><path d="M52.7 381.2a10.4 10.4 0 00-10.3 10.3 10.4 10.4 0 0010.3 10.3A10.4 10.4 0 0063 391.5a10.4 10.4 0 00-10.3-10.3z" fill="#4AD268" fill-opacity=".5"/><path fill-rule="evenodd" clip-rule="evenodd" d="M528 278.3A209.1 209.1 0 00365.8 95.5V69.2A35.2 35.2 0 00357.3 0H283a35.2 35.2 0 00-8.4 69.2v26.3a207.5 207.5 0 00-119.3 76l-.8-.1H80.8a10.3 10.3 0 000 20.6H141a207 207 0 00-18.3 39.7H10.3a10.3 10.3 0 000 20.7H117a210 210 0 00-5 39.7H66a10.3 10.3 0 000 20.7h46c1 13.4 3 26.7 6.5 39.7h-67a10.3 10.3 0 000 20.7h73.6a209 209 0 00308.8 101 10.3 10.3 0 10-11.3-17.4c-73.9 48.1-172.9 37.7-235.4-24.8a188.3 188.3 0 010-265.9 188.3 188.3 0 01266 0A188.9 188.9 0 01478 401.3a10.3 10.3 0 1017.4 11.3A209.4 209.4 0 00528 278.3zM268.5 35.1c0-8 6.5-14.4 14.4-14.4h74.4a14.5 14.5 0 010 28.9H283c-8 0-14.4-6.5-14.4-14.5zM295 92V70.3h50v21.6c-16.6-2-33.4-2-50 0z" fill="#434343"/><path d="M460.6 429a10.4 10.4 0 00-10.4 10.3 10.4 10.4 0 0017.7 7.3 10.4 10.4 0 000-14.6c-2-1.9-4.6-3-7.3-3z" fill="#434343"/><path fill-rule="evenodd" clip-rule="evenodd" d="M385.6 219.1l-51.1 51.2a31.9 31.9 0 00-28.4 0l-22.9-23a10.3 10.3 0 00-14.6 14.7l22.9 22.9a32.1 32.1 0 1057.6 0l51.1-51.2a10.3 10.3 0 10-14.6-14.6zm-65.3 91.4a11.5 11.5 0 110-22.9 11.5 11.5 0 010 23z" fill="#434343"/><path d="M421.2 288.9h9.5a10.3 10.3 0 010 20.6h-9.5a10.3 10.3 0 010-20.6zM219.4 288.6h-9.6a10.3 10.3 0 000 20.7h9.6a10.3 10.3 0 000-20.7zM330.7 198.2a10.3 10.3 0 01-20.6 0v-9.6a10.3 10.3 0 1120.6 0v9.6zM320.2 389.6c-5.7 0-10.4 4.7-10.4 10.4v9.5a10.3 10.3 0 0020.7 0V400c0-5.7-4.6-10.4-10.3-10.4z" fill="#434343"/><path fill-rule="evenodd" clip-rule="evenodd" d="M160 299c0-88.3 72-160.2 160.3-160.2 88.4 0 160.3 71.9 160.3 160.3s-72 160.3-160.3 160.3A160.5 160.5 0 01160 299zm20.7 0c0 77 62.6 139.7 139.6 139.7S459.9 376 459.9 299s-62.6-139.6-139.6-139.6S180.7 222 180.7 299z" fill="#434343"/><path d="M3 355.5a10.4 10.4 0 0114.6 0 10.4 10.4 0 010 14.6 10.4 10.4 0 01-14.6 0 10.4 10.4 0 010-14.6z" fill="#434343"/></svg>