<svg fill="none" xmlns="http://www.w3.org/2000/svg" viewBox="0 0 538 538"><path fill-rule="evenodd" clip-rule="evenodd" d="M192.4 171.3l40-34.3a94 94 0 0091.8 76.7h1a93.3 93.3 0 0048.7-14l38.3 51.1a94 94 0 00-65.4 121.3l-34.4 25.7a94 94 0 00-175 37.8H93.1a34.2 34.2 0 100 17h44.1a94 94 0 00185 12.5L378 492a34.2 34.2 0 1010-14.2l-63.4-30.5a94.4 94.4 0 00-5-33.5L354 388a94 94 0 1077.9-140h-.5l-43.8-58.5a93.7 93.7 0 0030.8-64.6l53.5 25.8a34.2 34.2 0 1010-14.2l-64.5-31A94 94 0 00231 115.8L180.4 159a93.5 93.5 0 00-52-21.8V93.2a34.2 34.2 0 10-17 0v44.1a94 94 0 10101 109.8l38.2 30a34.2 34.2 0 1010.5-13.5l-47.5-37c-.9-21-8.7-40.1-21.2-55.3zm-72.5-94.1zm-42.7 367zm426.7-264.6a17 17 0 110-34.2 17 17 0 010 34.2zM410 520.9a17 17 0 110-34.1 17 17 0 010 34.1zM268.4 280.2a17 17 0 10.1-.2v.1zm201.3 130.3a77.4 77.4 0 01-68.2 0V393c0-4.8 4.2-8.7 9.3-8.7h49.6c5.1 0 9.3 3.9 9.3 8.7v17.4zm-273 102.4a77.4 77.4 0 0068.2 0v-17.4c0-4.8-4.2-8.7-9.3-8.7H206c-5.1 0-9.3 3.9-9.3 8.7v17.4zM154 299.5a77.4 77.4 0 01-68.3 0v-17.4c0-4.7 4.2-8.6 9.4-8.6h49.5c5.2 0 9.4 3.9 9.4 8.6v17.4zm136.5-128.3v17.4a77.4 77.4 0 0068.3 0v-17.4c0-4.8-4.2-8.7-9.4-8.7H300c-5.2 0-9.4 4-9.4 8.7zM342 94a17 17 0 11-34 0 17 17 0 0134 0zM137 205a17 17 0 11-34 0 17 17 0 0134 0zm316 111a17 17 0 11-34 0 17 17 0 0134 0zM248 418a17 17 0 11-34 0 17 17 0 0134 0z" fill="#4AD268" fill-opacity=".5"/><path d="M477.9 102.4a34.2 34.2 0 100 68.3 34.2 34.2 0 000-68.3zm0 51.2a17 17 0 110-34.2 17 17 0 010 34.2zM34.1 384a34.2 34.2 0 10.1 68.3 34.2 34.2 0 000-68.3zm0 51.2a17 17 0 110-34.2 17 17 0 010 34.2z" fill="#434343"/><path d="M461.3 113.2l-73.6-35.6a8.5 8.5 0 10-7.4 15.4l73.6 35.6c1.2.5 2.5.8 3.7.8a8.5 8.5 0 003.7-16.2zM384 443.7a34.2 34.2 0 100 68.4 34.2 34.2 0 000-68.4zm0 51.2a17 17 0 110-34.1 17 17 0 010 34.1z" fill="#434343"/><path d="M367.5 454.5L293.8 419a8.5 8.5 0 10-7.4 15.3L360 470c1.2.6 2.5.8 3.7.8a8.5 8.5 0 003.8-16.2zM256 230.4a34.2 34.2 0 100 68.3 34.2 34.2 0 000-68.3zm0 51.2a17 17 0 110-34.2 17 17 0 010 34.2z" fill="#434343"/><path d="M241 242.1l-56.6-44a8.6 8.6 0 00-10.4 13.4l56.5 44.1a8.5 8.5 0 1010.5-13.5zM409.6 221.9a94 94 0 000 187.7 94 94 0 000-187.7zm0 170.6a76.9 76.9 0 11.2-153.7 76.9 76.9 0 01-.2 153.7z" fill="#434343"/><path d="M409.6 256a34.2 34.2 0 100 68.3 34.2 34.2 0 000-68.3zm0 51.2a17 17 0 110-34.2 17 17 0 010 34.2zM434.4 341.3h-49.6a26.1 26.1 0 00-26.4 25.8v22.5c0 3 1.6 5.8 4.3 7.3a93.9 93.9 0 0093.8 0 8.5 8.5 0 004.3-7.3V367a26.1 26.1 0 00-26.4-25.8zm9.3 43.2a77.4 77.4 0 01-68.2 0V367c0-4.8 4.2-8.7 9.3-8.7h49.6c5.1 0 9.3 3.9 9.3 8.7v17.4zM204.8 324.3a94 94 0 000 187.7 94 94 0 000-187.7zm0 170.6a76.9 76.9 0 11.2-153.7 76.9 76.9 0 01-.2 153.7z" fill="#434343"/><path d="M204.8 358.4a34.2 34.2 0 100 68.3 34.2 34.2 0 000-68.3zm0 51.2a17 17 0 110-34.2 17 17 0 010 34.2zM229.6 443.7H180a26.1 26.1 0 00-26.4 25.8V492c0 3 1.6 5.8 4.3 7.3a93.9 93.9 0 0093.8 0 8.5 8.5 0 004.3-7.3v-22.5a26.1 26.1 0 00-26.4-25.8zm9.3 43.2a77.4 77.4 0 01-68.2 0v-17.4c0-4.8 4.2-8.7 9.3-8.7h49.6c5.1 0 9.3 3.9 9.3 8.7v17.4zM93.9 111a94 94 0 000 187.7 94 94 0 000-187.8zm0 170.6a76.9 76.9 0 11.1-153.8 76.9 76.9 0 01-.1 153.8z" fill="#434343"/><path d="M93.9 145a34.2 34.2 0 100 68.4 34.2 34.2 0 000-68.3zm0 51.3a17 17 0 110-34.2 17 17 0 010 34.2zM118.6 230.4H69.1a26.1 26.1 0 00-26.4 25.7v22.5c0 3 1.6 5.9 4.2 7.4a93.9 93.9 0 0094 0 8.5 8.5 0 004.2-7.4v-22.5a26.1 26.1 0 00-26.5-25.7zm9.4 43.1a77.4 77.4 0 01-68.3 0v-17.4c0-4.7 4.2-8.6 9.4-8.6h49.5c5.2 0 9.4 3.9 9.4 8.6v17.4zM298.7 0a94 94 0 000 187.7 94 94 0 000-187.7zm0 170.7a76.9 76.9 0 11.1-153.8 76.9 76.9 0 01-.1 153.8z" fill="#434343"/><path d="M298.7 34.1a34.2 34.2 0 100 68.4 34.2 34.2 0 000-68.4zm0 51.2a17 17 0 110-34.1 17 17 0 010 34.1zM323.4 119.5H274a26.1 26.1 0 00-26.4 25.7v22.5c0 3 1.6 5.9 4.2 7.4a93.9 93.9 0 0094 0 8.5 8.5 0 004.2-7.4v-22.5a26.1 26.1 0 00-26.5-25.7zm9.4 43.1a77.4 77.4 0 01-68.3 0v-17.4c0-4.8 4.2-8.7 9.4-8.7h49.5c5.2 0 9.4 4 9.4 8.7v17.4zM219.8 88.3c-3-3.6-8.4-4-12-1L148.7 138a8.5 8.5 0 1011 13l59.2-50.7c3.6-3 4-8.4 1-12z" fill="#434343"/><path d="M407.9 225.3L356.7 157a8.5 8.5 0 00-13.7 10.3l51.2 68.2a8.5 8.5 0 0013.7-10.2zM337.9 344a8.5 8.5 0 00-12-1.8L278.2 378a8.5 8.5 0 1010.3 13.6l47.7-35.7a8.5 8.5 0 001.7-12zM119.5 409.6H59.7a8.5 8.5 0 100 17h59.8a8.5 8.5 0 100-17zM93.9 0a34.2 34.2 0 100 68.3A34.2 34.2 0 0094 0zm0 51.2a17 17 0 110-34.2 17 17 0 010 34.2z" fill="#434343"/><path d="M93.9 51.2a8.5 8.5 0 00-8.6 8.5v59.8a8.5 8.5 0 1017.1 0V59.7c0-4.7-3.8-8.5-8.5-8.5z" fill="#434343"/></svg>