<svg fill="none" xmlns="http://www.w3.org/2000/svg" viewBox="0 0 545 538"><path d="M376.4 380.2l-9 12.6h35l2.4-.3h61c9.6-.1 18.5 5 23.3 13.4l52.7 94.2a24.8 24.8 0 01-.3 24.9 26.4 26.4 0 01-23 13H57.7c-9.5.1-18.3-4.8-23.1-13a24.8 24.8 0 01-.3-25L87 406a26.6 26.6 0 0123.3-13.5h61c.9 0 1.6 0 2.4.3h35l-9-12.6c-21-29-40-59.4-56.6-91.1-17.5-34.4-26.3-62.9-26.3-84.8A171.5 171.5 0 01355.2 46.5l.6.2a430.7 430.7 0 0154.8 37.8c3.8 3.4 6.8 6.6 8.4 9.3a171 171 0 0140.4 110.6c0 21.8-9 50.3-26.4 84.7a752 752 0 01-56.6 91.1z" fill="#4AD268" fill-opacity=".5"/><circle cx="286.1" cy="197.1" fill="#fff" r="87.3"/><path d="M168.6 347.3a1423.4 1423.4 0 0062 80.8h-42.2a8.6 8.6 0 100 17.1h137a8.6 8.6 0 100-17.1h-42.2l5.8-7c14-17.2 35.1-44 56.3-73.8 21-29 40-59.4 56.6-91.1 17.5-34.3 26.3-62.8 26.3-84.7.1-45.5-18-89.1-50.1-121.2a8.6 8.6 0 10-12.1 12A154 154 0 01411 171.6c0 19.1-8.2 45-24.5 77a735.2 735.2 0 01-55.3 89 1392.8 1392.8 0 01-67.8 87.6 8.7 8.7 0 01-13 0 1527.3 1527.3 0 01-68-87.6c-20.5-28.4-39-58.1-55.2-89-16.3-32-24.5-57.9-24.5-77A154.4 154.4 0 01317 29.3a8.6 8.6 0 006.7-15.8 171.5 171.5 0 00-238 158c0 21.9 8.8 50.4 26.3 84.7a751.7 751.7 0 0056.6 91.1z" fill="#434343"/><path d="M257 94.2a8.6 8.6 0 100-17.1 85.6 85.6 0 1060.5 25 8.6 8.6 0 10-12.1 12.2 68.5 68.5 0 11-48.5-20zM458 373l52.7 94.2a24.8 24.8 0 01-.3 25 26.4 26.4 0 01-23 13H26.5c-9.5 0-18.3-4.9-23.1-13a24.8 24.8 0 01-.3-25L56 373a26.6 26.6 0 0123.3-13.4h61a8.6 8.6 0 110 17.1h-61a9.5 9.5 0 00-8.3 4.7l-52.7 94.2a7.7 7.7 0 000 7.9c1.8 2.9 5 4.6 8.4 4.5h460.7c3.4.1 6.6-1.6 8.3-4.5a7.7 7.7 0 00.1-8l-52.6-94.1c-1.8-3-5-4.7-8.4-4.7h-61a8.6 8.6 0 110-17.1h61c9.6 0 18.5 5 23.3 13.4z" fill="#434343"/><path d="M419.7 402.4h-34.3c-1.7 0-3.3.5-4.7 1.4L355 421a8.6 8.6 0 109.5 14.2l23.5-15.7h31.7a8.6 8.6 0 100-17.1zM376.9 470.9a8.6 8.6 0 110-17.1h68.5a8.6 8.6 0 110 17h-68.5zM154.2 436.6a8.6 8.6 0 004.7-15.6l-25.7-17.2c-1.4-.9-3-1.4-4.7-1.4H94.2a8.6 8.6 0 100 17.1H126l23.5 15.7c1.4 1 3 1.4 4.8 1.4zM60 462.3c0-4.7 3.8-8.5 8.5-8.5H137a8.6 8.6 0 110 17H68.5a8.6 8.6 0 01-8.5-8.5z" fill="#434343"/></svg>